<?xml version="1.0" encoding="UTF-8"?>
<!DOCTYPE svg
PUBLIC "-//W3C//DTD SVG 1.1//EN"
       "http://www.w3.org/Graphics/SVG/1.1/DTD/svg11.dtd">
<svg viewBox="490 -15 1179 814" width="689px" height="829px" xmlns="http://www.w3.org/2000/svg" version="1.1">
   <line x1="705" y1="689" x2="695" y2="689" style="stroke:#333;stroke-width:1;"/>
   <line x1="682" y1="508" x2="692" y2="508" style="stroke:#333;stroke-width:1;"/>
   <line x1="695" y1="689" x2="682" y2="508" style="stroke:#333;stroke-width:1;"/>
   <line x1="697.5" y1="689" x2="701.03553390593" y2="692.53553390593" style="stroke:#333;stroke-width:2;"/>
   <line x1="697.5" y1="689" x2="701.03553390593" y2="685.46446609407" style="stroke:#333;stroke-width:2;"/>
   <line x1="687" y1="508" x2="683.46446609407" y2="511.53553390593" style="stroke:#333;stroke-width:2;"/>
   <line x1="687" y1="508" x2="683.46446609407" y2="504.46446609407" style="stroke:#333;stroke-width:2;"/>
   <line x1="792" y1="729" x2="802" y2="729" style="stroke:#0bf;stroke-width:1;"/>
   <line x1="856" y1="312" x2="866" y2="312" style="stroke:#0bf;stroke-width:1;"/>
   <line x1="802" y1="729" x2="856" y2="312" style="stroke:#0bf;stroke-width:1;"/>
   <line x1="799.5" y1="729" x2="795.96446609407" y2="732.53553390593" style="stroke:#0bf;stroke-width:2;"/>
   <line x1="799.5" y1="729" x2="795.96446609407" y2="725.46446609407" style="stroke:#0bf;stroke-width:2;"/>
   <line x1="861" y1="312" x2="857.46446609407" y2="315.53553390593" style="stroke:#0bf;stroke-width:2;"/>
   <line x1="861" y1="312" x2="857.46446609407" y2="308.46446609407" style="stroke:#0bf;stroke-width:2;"/>
   <line x1="872" y1="513" x2="862" y2="513" style="stroke:#0b0;stroke-width:1;"/>
   <line x1="802" y1="669" x2="792" y2="669" style="stroke:#0b0;stroke-width:1;"/>
   <line x1="862" y1="513" x2="802" y2="669" style="stroke:#0b0;stroke-width:1;"/>
   <line x1="864.5" y1="513" x2="868.03553390593" y2="516.53553390593" style="stroke:#0b0;stroke-width:2;"/>
   <line x1="864.5" y1="513" x2="868.03553390593" y2="509.46446609407" style="stroke:#0b0;stroke-width:2;"/>
   <line x1="797" y1="669" x2="800.53553390593" y2="672.53553390593" style="stroke:#0b0;stroke-width:2;"/>
   <line x1="797" y1="669" x2="800.53553390593" y2="665.46446609407" style="stroke:#0b0;stroke-width:2;"/>
   <line x1="948" y1="533" x2="958" y2="533" style="stroke:#0bf;stroke-width:1;"/>
   <line x1="965" y1="595" x2="955" y2="595" style="stroke:#0bf;stroke-width:1;"/>
   <line x1="958" y1="533" x2="965" y2="595" style="stroke:#0bf;stroke-width:1;"/>
   <line x1="955.5" y1="533" x2="951.96446609407" y2="536.53553390593" style="stroke:#0bf;stroke-width:2;"/>
   <line x1="955.5" y1="533" x2="951.96446609407" y2="529.46446609407" style="stroke:#0bf;stroke-width:2;"/>
   <line x1="960" y1="595" x2="963.53553390593" y2="598.53553390593" style="stroke:#0bf;stroke-width:2;"/>
   <line x1="960" y1="595" x2="963.53553390593" y2="591.46446609407" style="stroke:#0bf;stroke-width:2;"/>
   <line x1="888" y1="715" x2="878" y2="715" style="stroke:#0b0;stroke-width:1;"/>
   <line x1="584" y1="340" x2="574" y2="340" style="stroke:#0b0;stroke-width:1;"/>
   <line x1="878" y1="715" x2="584" y2="340" style="stroke:#0b0;stroke-width:1;"/>
   <line x1="880.5" y1="715" x2="884.03553390593" y2="718.53553390593" style="stroke:#0b0;stroke-width:2;"/>
   <line x1="880.5" y1="715" x2="884.03553390593" y2="711.46446609407" style="stroke:#0b0;stroke-width:2;"/>
   <line x1="579" y1="340" x2="582.53553390593" y2="343.53553390593" style="stroke:#0b0;stroke-width:2;"/>
   <line x1="579" y1="340" x2="582.53553390593" y2="336.46446609407" style="stroke:#0b0;stroke-width:2;"/>
   <line x1="955" y1="615" x2="965" y2="615" style="stroke:#cb0;stroke-width:1;"/>
   <line x1="952" y1="312" x2="942" y2="312" style="stroke:#cb0;stroke-width:1;"/>
   <line x1="965" y1="615" x2="952" y2="312" style="stroke:#cb0;stroke-width:1;"/>
   <line x1="962.5" y1="615" x2="958.96446609407" y2="618.53553390593" style="stroke:#cb0;stroke-width:2;"/>
   <line x1="962.5" y1="615" x2="958.96446609407" y2="611.46446609407" style="stroke:#cb0;stroke-width:2;"/>
   <line x1="947" y1="312" x2="950.53553390593" y2="315.53553390593" style="stroke:#cb0;stroke-width:2;"/>
   <line x1="947" y1="312" x2="950.53553390593" y2="308.46446609407" style="stroke:#cb0;stroke-width:2;"/>
   <line x1="888" y1="675" x2="878" y2="675" style="stroke:#0b0;stroke-width:1;"/>
   <line x1="584" y1="340" x2="574" y2="340" style="stroke:#0b0;stroke-width:1;"/>
   <line x1="878" y1="675" x2="584" y2="340" style="stroke:#0b0;stroke-width:1;"/>
   <line x1="880.5" y1="675" x2="884.03553390593" y2="678.53553390593" style="stroke:#0b0;stroke-width:2;"/>
   <line x1="880.5" y1="675" x2="884.03553390593" y2="671.46446609407" style="stroke:#0b0;stroke-width:2;"/>
   <line x1="579" y1="340" x2="582.53553390593" y2="343.53553390593" style="stroke:#0b0;stroke-width:2;"/>
   <line x1="579" y1="340" x2="582.53553390593" y2="336.46446609407" style="stroke:#0b0;stroke-width:2;"/>
   <line x1="773" y1="548" x2="783" y2="548" style="stroke:#0bf;stroke-width:1;"/>
   <line x1="857" y1="411" x2="867" y2="411" style="stroke:#0bf;stroke-width:1;"/>
   <line x1="783" y1="548" x2="857" y2="411" style="stroke:#0bf;stroke-width:1;"/>
   <line x1="780.5" y1="548" x2="776.96446609407" y2="551.53553390593" style="stroke:#0bf;stroke-width:2;"/>
   <line x1="780.5" y1="548" x2="776.96446609407" y2="544.46446609407" style="stroke:#0bf;stroke-width:2;"/>
   <line x1="862" y1="411" x2="858.46446609407" y2="414.53553390593" style="stroke:#0bf;stroke-width:2;"/>
   <line x1="862" y1="411" x2="858.46446609407" y2="407.46446609407" style="stroke:#0bf;stroke-width:2;"/>
   <line x1="692" y1="528" x2="682" y2="528" style="stroke:#c00;stroke-width:1;"/>
   <line x1="688" y1="123" x2="698" y2="123" style="stroke:#c00;stroke-width:1;"/>
   <line x1="682" y1="528" x2="688" y2="123" style="stroke:#c00;stroke-width:1;"/>
   <line x1="684.5" y1="528" x2="688.03553390593" y2="531.53553390593" style="stroke:#c00;stroke-width:2;"/>
   <line x1="684.5" y1="528" x2="688.03553390593" y2="524.46446609407" style="stroke:#c00;stroke-width:2;"/>
   <line x1="693" y1="123" x2="689.46446609407" y2="126.53553390593" style="stroke:#c00;stroke-width:2;"/>
   <line x1="693" y1="123" x2="689.46446609407" y2="119.46446609407" style="stroke:#c00;stroke-width:2;"/>
   <line x1="692" y1="588" x2="682" y2="588" style="stroke:#c00;stroke-width:1;"/>
   <line x1="584" y1="340" x2="574" y2="340" style="stroke:#c00;stroke-width:1;"/>
   <line x1="682" y1="588" x2="584" y2="340" style="stroke:#c00;stroke-width:1;"/>
   <line x1="684.5" y1="588" x2="688.03553390593" y2="591.53553390593" style="stroke:#c00;stroke-width:2;"/>
   <line x1="684.5" y1="588" x2="688.03553390593" y2="584.46446609407" style="stroke:#c00;stroke-width:2;"/>
   <line x1="579" y1="340" x2="582.53553390593" y2="343.53553390593" style="stroke:#c00;stroke-width:2;"/>
   <line x1="579" y1="340" x2="582.53553390593" y2="336.46446609407" style="stroke:#c00;stroke-width:2;"/>
   <line x1="512" y1="664" x2="502" y2="664" style="stroke:#c00;stroke-width:1;"/>
   <line x1="503" y1="340" x2="513" y2="340" style="stroke:#c00;stroke-width:1;"/>
   <line x1="502" y1="664" x2="503" y2="340" style="stroke:#c00;stroke-width:1;"/>
   <line x1="504.5" y1="664" x2="508.03553390593" y2="667.53553390593" style="stroke:#c00;stroke-width:2;"/>
   <line x1="504.5" y1="664" x2="508.03553390593" y2="660.46446609407" style="stroke:#c00;stroke-width:2;"/>
   <line x1="508" y1="340" x2="504.46446609407" y2="343.53553390593" style="stroke:#c00;stroke-width:2;"/>
   <line x1="508" y1="340" x2="504.46446609407" y2="336.46446609407" style="stroke:#c00;stroke-width:2;"/>
   <line x1="512" y1="684" x2="502" y2="684" style="stroke:#cb0;stroke-width:1;"/>
   <line x1="503" y1="340" x2="513" y2="340" style="stroke:#cb0;stroke-width:1;"/>
   <line x1="502" y1="684" x2="503" y2="340" style="stroke:#cb0;stroke-width:1;"/>
   <line x1="504.5" y1="684" x2="508.03553390593" y2="687.53553390593" style="stroke:#cb0;stroke-width:2;"/>
   <line x1="504.5" y1="684" x2="508.03553390593" y2="680.46446609407" style="stroke:#cb0;stroke-width:2;"/>
   <line x1="508" y1="340" x2="504.46446609407" y2="343.53553390593" style="stroke:#cb0;stroke-width:2;"/>
   <line x1="508" y1="340" x2="504.46446609407" y2="336.46446609407" style="stroke:#cb0;stroke-width:2;"/>
   <line x1="597" y1="584" x2="607" y2="584" style="stroke:#b0b;stroke-width:1;"/>
   <line x1="695" y1="669" x2="705" y2="669" style="stroke:#b0b;stroke-width:1;"/>
   <line x1="607" y1="584" x2="695" y2="669" style="stroke:#b0b;stroke-width:1;"/>
   <line x1="604.5" y1="584" x2="600.96446609407" y2="587.53553390593" style="stroke:#b0b;stroke-width:2;"/>
   <line x1="604.5" y1="584" x2="600.96446609407" y2="580.46446609407" style="stroke:#b0b;stroke-width:2;"/>
   <line x1="700" y1="669" x2="696.46446609407" y2="672.53553390593" style="stroke:#b0b;stroke-width:2;"/>
   <line x1="700" y1="669" x2="696.46446609407" y2="665.46446609407" style="stroke:#b0b;stroke-width:2;"/>
   <line x1="512" y1="644" x2="502" y2="644" style="stroke:#bbb;stroke-width:1;"/>
   <line x1="503" y1="340" x2="513" y2="340" style="stroke:#bbb;stroke-width:1;"/>
   <line x1="502" y1="644" x2="503" y2="340" style="stroke:#bbb;stroke-width:1;"/>
   <line x1="504.5" y1="644" x2="508.03553390593" y2="647.53553390593" style="stroke:#bbb;stroke-width:2;"/>
   <line x1="504.5" y1="644" x2="508.03553390593" y2="640.46446609407" style="stroke:#bbb;stroke-width:2;"/>
   <line x1="508" y1="340" x2="504.46446609407" y2="343.53553390593" style="stroke:#bbb;stroke-width:2;"/>
   <line x1="508" y1="340" x2="504.46446609407" y2="336.46446609407" style="stroke:#bbb;stroke-width:2;"/>
   <line x1="932" y1="40" x2="942" y2="40" style="stroke:#333;stroke-width:1;"/>
   <line x1="943" y1="119" x2="933" y2="119" style="stroke:#333;stroke-width:1;"/>
   <line x1="942" y1="40" x2="943" y2="119" style="stroke:#333;stroke-width:1;"/>
   <line x1="939.5" y1="40" x2="935.96446609407" y2="43.535533905933" style="stroke:#333;stroke-width:2;"/>
   <line x1="939.5" y1="40" x2="935.96446609407" y2="36.464466094067" style="stroke:#333;stroke-width:2;"/>
   <line x1="938" y1="119" x2="941.53553390593" y2="122.53553390593" style="stroke:#333;stroke-width:2;"/>
   <line x1="938" y1="119" x2="941.53553390593" y2="115.46446609407" style="stroke:#333;stroke-width:2;"/>
   <line x1="876" y1="60" x2="866" y2="60" style="stroke:#333;stroke-width:1;"/>
   <line x1="775" y1="30" x2="765" y2="30" style="stroke:#333;stroke-width:1;"/>
   <line x1="866" y1="60" x2="775" y2="30" style="stroke:#333;stroke-width:1;"/>
   <line x1="868.5" y1="60" x2="872.03553390593" y2="63.535533905933" style="stroke:#333;stroke-width:2;"/>
   <line x1="868.5" y1="60" x2="872.03553390593" y2="56.464466094067" style="stroke:#333;stroke-width:2;"/>
   <line x1="770" y1="30" x2="773.53553390593" y2="33.535533905933" style="stroke:#333;stroke-width:2;"/>
   <line x1="770" y1="30" x2="773.53553390593" y2="26.464466094067" style="stroke:#333;stroke-width:2;"/>
   <line x1="867" y1="431" x2="857" y2="431" style="stroke:#cb0;stroke-width:1;"/>
   <line x1="802" y1="669" x2="792" y2="669" style="stroke:#cb0;stroke-width:1;"/>
   <line x1="857" y1="431" x2="802" y2="669" style="stroke:#cb0;stroke-width:1;"/>
   <line x1="859.5" y1="431" x2="863.03553390593" y2="434.53553390593" style="stroke:#cb0;stroke-width:2;"/>
   <line x1="859.5" y1="431" x2="863.03553390593" y2="427.46446609407" style="stroke:#cb0;stroke-width:2;"/>
   <line x1="797" y1="669" x2="800.53553390593" y2="672.53553390593" style="stroke:#cb0;stroke-width:2;"/>
   <line x1="797" y1="669" x2="800.53553390593" y2="665.46446609407" style="stroke:#cb0;stroke-width:2;"/>
   <line x1="867" y1="451" x2="857" y2="451" style="stroke:#0bf;stroke-width:1;"/>
   <line x1="584" y1="340" x2="574" y2="340" style="stroke:#0bf;stroke-width:1;"/>
   <line x1="857" y1="451" x2="584" y2="340" style="stroke:#0bf;stroke-width:1;"/>
   <line x1="859.5" y1="451" x2="863.03553390593" y2="454.53553390593" style="stroke:#0bf;stroke-width:2;"/>
   <line x1="859.5" y1="451" x2="863.03553390593" y2="447.46446609407" style="stroke:#0bf;stroke-width:2;"/>
   <line x1="579" y1="340" x2="582.53553390593" y2="343.53553390593" style="stroke:#0bf;stroke-width:2;"/>
   <line x1="579" y1="340" x2="582.53553390593" y2="336.46446609407" style="stroke:#0bf;stroke-width:2;"/>
   <line x1="582" y1="118" x2="592" y2="118" style="stroke:#0b0;stroke-width:1;"/>
   <line x1="695" y1="669" x2="705" y2="669" style="stroke:#0b0;stroke-width:1;"/>
   <line x1="592" y1="118" x2="695" y2="669" style="stroke:#0b0;stroke-width:1;"/>
   <line x1="589.5" y1="118" x2="585.96446609407" y2="121.53553390593" style="stroke:#0b0;stroke-width:2;"/>
   <line x1="589.5" y1="118" x2="585.96446609407" y2="114.46446609407" style="stroke:#0b0;stroke-width:2;"/>
   <line x1="700" y1="669" x2="696.46446609407" y2="672.53553390593" style="stroke:#0b0;stroke-width:2;"/>
   <line x1="700" y1="669" x2="696.46446609407" y2="665.46446609407" style="stroke:#0b0;stroke-width:2;"/>
   <line x1="582" y1="98" x2="592" y2="98" style="stroke:#333;stroke-width:1;"/>
   <line x1="688" y1="123" x2="698" y2="123" style="stroke:#333;stroke-width:1;"/>
   <line x1="592" y1="98" x2="688" y2="123" style="stroke:#333;stroke-width:1;"/>
   <line x1="589.5" y1="98" x2="585.96446609407" y2="101.53553390593" style="stroke:#333;stroke-width:2;"/>
   <line x1="589.5" y1="98" x2="585.96446609407" y2="94.464466094067" style="stroke:#333;stroke-width:2;"/>
   <line x1="693" y1="123" x2="689.46446609407" y2="126.53553390593" style="stroke:#333;stroke-width:2;"/>
   <line x1="693" y1="123" x2="689.46446609407" y2="119.46446609407" style="stroke:#333;stroke-width:2;"/>
   <line x1="515" y1="218" x2="505" y2="218" style="stroke:#0b0;stroke-width:1;"/>
   <line x1="503" y1="340" x2="513" y2="340" style="stroke:#0b0;stroke-width:1;"/>
   <line x1="505" y1="218" x2="503" y2="340" style="stroke:#0b0;stroke-width:1;"/>
   <line x1="507.5" y1="218" x2="511.03553390593" y2="221.53553390593" style="stroke:#0b0;stroke-width:2;"/>
   <line x1="507.5" y1="218" x2="511.03553390593" y2="214.46446609407" style="stroke:#0b0;stroke-width:2;"/>
   <line x1="508" y1="340" x2="504.46446609407" y2="343.53553390593" style="stroke:#0b0;stroke-width:2;"/>
   <line x1="508" y1="340" x2="504.46446609407" y2="336.46446609407" style="stroke:#0b0;stroke-width:2;"/>
   <line x1="765" y1="143" x2="775" y2="143" style="stroke:#bbb;stroke-width:1;"/>
   <line x1="775" y1="30" x2="765" y2="30" style="stroke:#bbb;stroke-width:1;"/>
   <line x1="775" y1="143" x2="775" y2="30" style="stroke:#bbb;stroke-width:1;"/>
   <line x1="772.5" y1="143" x2="768.96446609407" y2="146.53553390593" style="stroke:#bbb;stroke-width:2;"/>
   <line x1="772.5" y1="143" x2="768.96446609407" y2="139.46446609407" style="stroke:#bbb;stroke-width:2;"/>
   <line x1="770" y1="30" x2="773.53553390593" y2="33.535533905933" style="stroke:#bbb;stroke-width:2;"/>
   <line x1="770" y1="30" x2="773.53553390593" y2="26.464466094067" style="stroke:#bbb;stroke-width:2;"/>
   <line x1="765" y1="423" x2="775" y2="423" style="stroke:#cb0;stroke-width:1;"/>
   <line x1="856" y1="312" x2="866" y2="312" style="stroke:#cb0;stroke-width:1;"/>
   <line x1="775" y1="423" x2="856" y2="312" style="stroke:#cb0;stroke-width:1;"/>
   <line x1="772.5" y1="423" x2="768.96446609407" y2="426.53553390593" style="stroke:#cb0;stroke-width:2;"/>
   <line x1="772.5" y1="423" x2="768.96446609407" y2="419.46446609407" style="stroke:#cb0;stroke-width:2;"/>
   <line x1="861" y1="312" x2="857.46446609407" y2="315.53553390593" style="stroke:#cb0;stroke-width:2;"/>
   <line x1="861" y1="312" x2="857.46446609407" y2="308.46446609407" style="stroke:#cb0;stroke-width:2;"/>
   <line x1="698" y1="363" x2="688" y2="363" style="stroke:#bbb;stroke-width:1;"/>
   <line x1="584" y1="340" x2="574" y2="340" style="stroke:#bbb;stroke-width:1;"/>
   <line x1="688" y1="363" x2="584" y2="340" style="stroke:#bbb;stroke-width:1;"/>
   <line x1="690.5" y1="363" x2="694.03553390593" y2="366.53553390593" style="stroke:#bbb;stroke-width:2;"/>
   <line x1="690.5" y1="363" x2="694.03553390593" y2="359.46446609407" style="stroke:#bbb;stroke-width:2;"/>
   <line x1="579" y1="340" x2="582.53553390593" y2="343.53553390593" style="stroke:#bbb;stroke-width:2;"/>
   <line x1="579" y1="340" x2="582.53553390593" y2="336.46446609407" style="stroke:#bbb;stroke-width:2;"/>
   <line x1="698" y1="343" x2="688" y2="343" style="stroke:#0bf;stroke-width:1;"/>
   <line x1="584" y1="340" x2="574" y2="340" style="stroke:#0bf;stroke-width:1;"/>
   <line x1="688" y1="343" x2="584" y2="340" style="stroke:#0bf;stroke-width:1;"/>
   <line x1="690.5" y1="343" x2="694.03553390593" y2="346.53553390593" style="stroke:#0bf;stroke-width:2;"/>
   <line x1="690.5" y1="343" x2="694.03553390593" y2="339.46446609407" style="stroke:#0bf;stroke-width:2;"/>
   <line x1="579" y1="340" x2="582.53553390593" y2="343.53553390593" style="stroke:#0bf;stroke-width:2;"/>
   <line x1="579" y1="340" x2="582.53553390593" y2="336.46446609407" style="stroke:#0bf;stroke-width:2;"/>
   <line x1="574" y1="380" x2="584" y2="380" style="stroke:#0b0;stroke-width:1;"/>
   <line x1="587" y1="484" x2="577" y2="484" style="stroke:#0b0;stroke-width:1;"/>
   <line x1="584" y1="380" x2="587" y2="484" style="stroke:#0b0;stroke-width:1;"/>
   <line x1="581.5" y1="380" x2="577.96446609407" y2="383.53553390593" style="stroke:#0b0;stroke-width:2;"/>
   <line x1="581.5" y1="380" x2="577.96446609407" y2="376.46446609407" style="stroke:#0b0;stroke-width:2;"/>
   <line x1="582" y1="484" x2="585.53553390593" y2="487.53553390593" style="stroke:#0b0;stroke-width:2;"/>
   <line x1="582" y1="484" x2="585.53553390593" y2="480.46446609407" style="stroke:#0b0;stroke-width:2;"/>
   <rect width="87" height="20" x="705" y="639" style="fill:#007;stroke:black;"/>
   <text width="87" height="20" x="710" y="653" style="fill:#fff;" font-family="Arial" font-size="16px"> club</text>
   <rect width="87" height="20" x="705" y="659" style="fill:#aea;stroke:black;"/>
   <text width="87" height="20" x="710" y="673" style="fill:black;" font-family="Arial" font-size="16px">idclb</text>
   <rect width="87" height="20" x="705" y="679" style="fill:none;stroke:black;"/>
   <text width="87" height="20" x="710" y="693" style="fill:black;" font-family="Arial" font-size="16px">idins</text>
   <rect width="87" height="20" x="705" y="699" style="fill:none;stroke:black;"/>
   <text width="87" height="20" x="710" y="713" style="fill:black;" font-family="Arial" font-size="16px">nomclb</text>
   <rect width="87" height="20" x="705" y="719" style="fill:none;stroke:black;"/>
   <text width="87" height="20" x="710" y="733" style="fill:black;" font-family="Arial" font-size="16px">idubi</text>
   <rect width="87" height="20" x="705" y="739" style="fill:none;stroke:black;"/>
   <text width="87" height="20" x="710" y="753" style="fill:black;" font-family="Arial" font-size="16px">anoforclb</text>
   <rect width="87" height="20" x="705" y="759" style="fill:none;stroke:black;"/>
   <text width="87" height="20" x="710" y="773" style="fill:black;" font-family="Arial" font-size="16px">cstmenusu</text>
   <rect width="87" height="20" x="705" y="779" style="fill:none;stroke:black;"/>
   <text width="87" height="20" x="710" y="793" style="fill:black;" font-family="Arial" font-size="16px">preclb</text>
   <rect width="103" height="20" x="1061" y="217" style="fill:#007;stroke:black;"/>
   <text width="103" height="20" x="1066" y="231" style="fill:#fff;" font-family="Arial" font-size="16px"> configuracion</text>
   <rect width="103" height="20" x="1061" y="237" style="fill:#aea;stroke:black;"/>
   <text width="103" height="20" x="1066" y="251" style="fill:black;" font-family="Arial" font-size="16px">idcon</text>
   <rect width="103" height="20" x="1061" y="257" style="fill:none;stroke:black;"/>
   <text width="103" height="20" x="1066" y="271" style="fill:black;" font-family="Arial" font-size="16px">nitcon</text>
   <rect width="103" height="20" x="1061" y="277" style="fill:none;stroke:black;"/>
   <text width="103" height="20" x="1066" y="291" style="fill:black;" font-family="Arial" font-size="16px">titcon</text>
   <rect width="103" height="20" x="1061" y="297" style="fill:none;stroke:black;"/>
   <text width="103" height="20" x="1066" y="311" style="fill:black;" font-family="Arial" font-size="16px">imgcon</text>
   <rect width="103" height="20" x="1061" y="317" style="fill:none;stroke:black;"/>
   <text width="103" height="20" x="1066" y="331" style="fill:black;" font-family="Arial" font-size="16px">descon</text>
   <rect width="103" height="20" x="1061" y="337" style="fill:none;stroke:black;"/>
   <text width="103" height="20" x="1066" y="351" style="fill:black;" font-family="Arial" font-size="16px">piecon</text>
   <rect width="76" height="20" x="872" y="483" style="fill:#007;stroke:black;"/>
   <text width="76" height="20" x="877" y="497" style="fill:#fff;" font-family="Arial" font-size="16px"> detevento</text>
   <rect width="76" height="20" x="872" y="503" style="fill:none;stroke:black;"/>
   <text width="76" height="20" x="877" y="517" style="fill:black;" font-family="Arial" font-size="16px">idclb</text>
   <rect width="76" height="20" x="872" y="523" style="fill:none;stroke:black;"/>
   <text width="76" height="20" x="877" y="537" style="fill:black;" font-family="Arial" font-size="16px">ideve</text>
   <rect width="72" height="20" x="505" y="454" style="fill:#007;stroke:black;"/>
   <text width="72" height="20" x="510" y="468" style="fill:#fff;" font-family="Arial" font-size="16px"> dominio</text>
   <rect width="72" height="20" x="505" y="474" style="fill:#aea;stroke:black;"/>
   <text width="72" height="20" x="510" y="488" style="fill:black;" font-family="Arial" font-size="16px">iddom</text>
   <rect width="72" height="20" x="505" y="494" style="fill:none;stroke:black;"/>
   <text width="72" height="20" x="510" y="508" style="fill:black;" font-family="Arial" font-size="16px">nomdom</text>
   <rect width="67" height="20" x="888" y="565" style="fill:#007;stroke:black;"/>
   <text width="67" height="20" x="893" y="579" style="fill:#fff;" font-family="Arial" font-size="16px"> evento</text>
   <rect width="67" height="20" x="888" y="585" style="fill:#aea;stroke:black;"/>
   <text width="67" height="20" x="893" y="599" style="fill:black;" font-family="Arial" font-size="16px">ideve</text>
   <rect width="67" height="20" x="888" y="605" style="fill:none;stroke:black;"/>
   <text width="67" height="20" x="893" y="619" style="fill:black;" font-family="Arial" font-size="16px">idubi</text>
   <rect width="67" height="20" x="888" y="625" style="fill:none;stroke:black;"/>
   <text width="67" height="20" x="893" y="639" style="fill:black;" font-family="Arial" font-size="16px">nomeve</text>
   <rect width="67" height="20" x="888" y="645" style="fill:none;stroke:black;"/>
   <text width="67" height="20" x="893" y="659" style="fill:black;" font-family="Arial" font-size="16px">deseve</text>
   <rect width="67" height="20" x="888" y="665" style="fill:none;stroke:black;"/>
   <text width="67" height="20" x="893" y="679" style="fill:black;" font-family="Arial" font-size="16px">tpoeve</text>
   <rect width="67" height="20" x="888" y="685" style="fill:none;stroke:black;"/>
   <text width="67" height="20" x="893" y="699" style="fill:black;" font-family="Arial" font-size="16px">dureve</text>
   <rect width="67" height="20" x="888" y="705" style="fill:none;stroke:black;"/>
   <text width="67" height="20" x="893" y="719" style="fill:black;" font-family="Arial" font-size="16px">etdeve</text>
   <rect width="67" height="20" x="888" y="725" style="fill:none;stroke:black;"/>
   <text width="67" height="20" x="893" y="739" style="fill:black;" font-family="Arial" font-size="16px">reseve</text>
   <rect width="67" height="20" x="888" y="745" style="fill:none;stroke:black;"/>
   <text width="67" height="20" x="893" y="759" style="fill:black;" font-family="Arial" font-size="16px">fheve</text>
   <rect width="81" height="20" x="692" y="478" style="fill:#007;stroke:black;"/>
   <text width="81" height="20" x="697" y="492" style="fill:#fff;" font-family="Arial" font-size="16px"> inscripcion</text>
   <rect width="81" height="20" x="692" y="498" style="fill:#aea;stroke:black;"/>
   <text width="81" height="20" x="697" y="512" style="fill:black;" font-family="Arial" font-size="16px">idins</text>
   <rect width="81" height="20" x="692" y="518" style="fill:none;stroke:black;"/>
   <text width="81" height="20" x="697" y="532" style="fill:black;" font-family="Arial" font-size="16px">idusu</text>
   <rect width="81" height="20" x="692" y="538" style="fill:none;stroke:black;"/>
   <text width="81" height="20" x="697" y="552" style="fill:black;" font-family="Arial" font-size="16px">idpla</text>
   <rect width="81" height="20" x="692" y="558" style="fill:none;stroke:black;"/>
   <text width="81" height="20" x="697" y="572" style="fill:black;" font-family="Arial" font-size="16px">fhins</text>
   <rect width="81" height="20" x="692" y="578" style="fill:none;stroke:black;"/>
   <text width="81" height="20" x="697" y="592" style="fill:black;" font-family="Arial" font-size="16px">etdins</text>
   <rect width="81" height="20" x="692" y="598" style="fill:none;stroke:black;"/>
   <text width="81" height="20" x="697" y="612" style="fill:black;" font-family="Arial" font-size="16px">durins</text>
   <rect width="85" height="20" x="512" y="534" style="fill:#007;stroke:black;"/>
   <text width="85" height="20" x="517" y="548" style="fill:#fff;" font-family="Arial" font-size="16px"> notcom</text>
   <rect width="85" height="20" x="512" y="554" style="fill:#aea;stroke:black;"/>
   <text width="85" height="20" x="517" y="568" style="fill:black;" font-family="Arial" font-size="16px">idntcm</text>
   <rect width="85" height="20" x="512" y="574" style="fill:none;stroke:black;"/>
   <text width="85" height="20" x="517" y="588" style="fill:black;" font-family="Arial" font-size="16px">idclb</text>
   <rect width="85" height="20" x="512" y="594" style="fill:none;stroke:black;"/>
   <text width="85" height="20" x="517" y="608" style="fill:black;" font-family="Arial" font-size="16px">fhpubntcm</text>
   <rect width="85" height="20" x="512" y="614" style="fill:none;stroke:black;"/>
   <text width="85" height="20" x="517" y="628" style="fill:black;" font-family="Arial" font-size="16px">autntcm</text>
   <rect width="85" height="20" x="512" y="634" style="fill:none;stroke:black;"/>
   <text width="85" height="20" x="517" y="648" style="fill:black;" font-family="Arial" font-size="16px">etdntcm</text>
   <rect width="85" height="20" x="512" y="654" style="fill:none;stroke:black;"/>
   <text width="85" height="20" x="517" y="668" style="fill:black;" font-family="Arial" font-size="16px">printcm</text>
   <rect width="85" height="20" x="512" y="674" style="fill:none;stroke:black;"/>
   <text width="85" height="20" x="517" y="688" style="fill:black;" font-family="Arial" font-size="16px">tpontcm</text>
   <rect width="68" height="20" x="865" y="89" style="fill:#007;stroke:black;"/>
   <text width="68" height="20" x="870" y="103" style="fill:#fff;" font-family="Arial" font-size="16px"> pagina</text>
   <rect width="68" height="20" x="865" y="109" style="fill:#aea;stroke:black;"/>
   <text width="68" height="20" x="870" y="123" style="fill:black;" font-family="Arial" font-size="16px">idpag</text>
   <rect width="68" height="20" x="865" y="129" style="fill:none;stroke:black;"/>
   <text width="68" height="20" x="870" y="143" style="fill:black;" font-family="Arial" font-size="16px">nompag</text>
   <rect width="68" height="20" x="865" y="149" style="fill:none;stroke:black;"/>
   <text width="68" height="20" x="870" y="163" style="fill:black;" font-family="Arial" font-size="16px">rutpag</text>
   <rect width="68" height="20" x="865" y="169" style="fill:none;stroke:black;"/>
   <text width="68" height="20" x="870" y="183" style="fill:black;" font-family="Arial" font-size="16px">mospag</text>
   <rect width="68" height="20" x="865" y="189" style="fill:none;stroke:black;"/>
   <text width="68" height="20" x="870" y="203" style="fill:black;" font-family="Arial" font-size="16px">ordpag</text>
   <rect width="68" height="20" x="865" y="209" style="fill:none;stroke:black;"/>
   <text width="68" height="20" x="870" y="223" style="fill:black;" font-family="Arial" font-size="16px">icopag</text>
   <rect width="56" height="20" x="876" y="10" style="fill:#007;stroke:black;"/>
   <text width="56" height="20" x="881" y="24" style="fill:#fff;" font-family="Arial" font-size="16px"> pagper</text>
   <rect width="56" height="20" x="876" y="30" style="fill:none;stroke:black;"/>
   <text width="56" height="20" x="881" y="44" style="fill:black;" font-family="Arial" font-size="16px">idpag</text>
   <rect width="56" height="20" x="876" y="50" style="fill:none;stroke:black;"/>
   <text width="56" height="20" x="881" y="64" style="fill:black;" font-family="Arial" font-size="16px">idper</text>
   <rect width="64" height="20" x="701" y="0" style="fill:#007;stroke:black;"/>
   <text width="64" height="20" x="706" y="14" style="fill:#fff;" font-family="Arial" font-size="16px"> perfil</text>
   <rect width="64" height="20" x="701" y="20" style="fill:#aea;stroke:black;"/>
   <text width="64" height="20" x="706" y="34" style="fill:black;" font-family="Arial" font-size="16px">idper</text>
   <rect width="64" height="20" x="701" y="40" style="fill:none;stroke:black;"/>
   <text width="64" height="20" x="706" y="54" style="fill:black;" font-family="Arial" font-size="16px">nomper</text>
   <rect width="64" height="20" x="701" y="60" style="fill:none;stroke:black;"/>
   <text width="64" height="20" x="706" y="74" style="fill:black;" font-family="Arial" font-size="16px">pagini</text>
   <rect width="63" height="20" x="867" y="381" style="fill:#007;stroke:black;"/>
   <text width="63" height="20" x="872" y="395" style="fill:#fff;" font-family="Arial" font-size="16px"> plantilla</text>
   <rect width="63" height="20" x="867" y="401" style="fill:#aea;stroke:black;"/>
   <text width="63" height="20" x="872" y="415" style="fill:black;" font-family="Arial" font-size="16px">idpla</text>
   <rect width="63" height="20" x="867" y="421" style="fill:none;stroke:black;"/>
   <text width="63" height="20" x="872" y="435" style="fill:black;" font-family="Arial" font-size="16px">idclb</text>
   <rect width="63" height="20" x="867" y="441" style="fill:none;stroke:black;"/>
   <text width="63" height="20" x="872" y="455" style="fill:black;" font-family="Arial" font-size="16px">ettpla</text>
   <rect width="67" height="20" x="515" y="48" style="fill:#007;stroke:black;"/>
   <text width="67" height="20" x="520" y="62" style="fill:#fff;" font-family="Arial" font-size="16px"> traspaso</text>
   <rect width="67" height="20" x="515" y="68" style="fill:#aea;stroke:black;"/>
   <text width="67" height="20" x="520" y="82" style="fill:black;" font-family="Arial" font-size="16px">idtrs</text>
   <rect width="67" height="20" x="515" y="88" style="fill:none;stroke:black;"/>
   <text width="67" height="20" x="520" y="102" style="fill:black;" font-family="Arial" font-size="16px">idusu</text>
   <rect width="67" height="20" x="515" y="108" style="fill:none;stroke:black;"/>
   <text width="67" height="20" x="520" y="122" style="fill:black;" font-family="Arial" font-size="16px">idclb</text>
   <rect width="67" height="20" x="515" y="128" style="fill:none;stroke:black;"/>
   <text width="67" height="20" x="520" y="142" style="fill:black;" font-family="Arial" font-size="16px">fictrtrs</text>
   <rect width="67" height="20" x="515" y="148" style="fill:none;stroke:black;"/>
   <text width="67" height="20" x="520" y="162" style="fill:black;" font-family="Arial" font-size="16px">valtrs</text>
   <rect width="67" height="20" x="515" y="168" style="fill:none;stroke:black;"/>
   <text width="67" height="20" x="520" y="182" style="fill:black;" font-family="Arial" font-size="16px">bontrs</text>
   <rect width="67" height="20" x="515" y="188" style="fill:none;stroke:black;"/>
   <text width="67" height="20" x="520" y="202" style="fill:black;" font-family="Arial" font-size="16px">dettrs</text>
   <rect width="67" height="20" x="515" y="208" style="fill:none;stroke:black;"/>
   <text width="67" height="20" x="520" y="222" style="fill:black;" font-family="Arial" font-size="16px">etdtrs</text>
   <rect width="67" height="20" x="515" y="228" style="fill:none;stroke:black;"/>
   <text width="67" height="20" x="520" y="242" style="fill:black;" font-family="Arial" font-size="16px">firclbtrs</text>
   <rect width="67" height="20" x="515" y="248" style="fill:none;stroke:black;"/>
   <text width="67" height="20" x="520" y="262" style="fill:black;" font-family="Arial" font-size="16px">firusutrs</text>
   <rect width="76" height="20" x="866" y="282" style="fill:#007;stroke:black;"/>
   <text width="76" height="20" x="871" y="296" style="fill:#fff;" font-family="Arial" font-size="16px"> ubicacion</text>
   <rect width="76" height="20" x="866" y="302" style="fill:#aea;stroke:black;"/>
   <text width="76" height="20" x="871" y="316" style="fill:black;" font-family="Arial" font-size="16px">idubi</text>
   <rect width="76" height="20" x="866" y="322" style="fill:none;stroke:black;"/>
   <text width="76" height="20" x="871" y="336" style="fill:black;" font-family="Arial" font-size="16px">nomubi</text>
   <rect width="76" height="20" x="866" y="342" style="fill:none;stroke:black;"/>
   <text width="76" height="20" x="871" y="356" style="fill:black;" font-family="Arial" font-size="16px">depubi</text>
   <rect width="67" height="20" x="698" y="93" style="fill:#007;stroke:black;"/>
   <text width="67" height="20" x="703" y="107" style="fill:#fff;" font-family="Arial" font-size="16px"> usuario</text>
   <rect width="67" height="20" x="698" y="113" style="fill:#aea;stroke:black;"/>
   <text width="67" height="20" x="703" y="127" style="fill:black;" font-family="Arial" font-size="16px">idusu</text>
   <rect width="67" height="20" x="698" y="133" style="fill:none;stroke:black;"/>
   <text width="67" height="20" x="703" y="147" style="fill:black;" font-family="Arial" font-size="16px">idper</text>
   <rect width="67" height="20" x="698" y="153" style="fill:none;stroke:black;"/>
   <text width="67" height="20" x="703" y="167" style="fill:black;" font-family="Arial" font-size="16px">nomusu</text>
   <rect width="67" height="20" x="698" y="173" style="fill:none;stroke:black;"/>
   <text width="67" height="20" x="703" y="187" style="fill:black;" font-family="Arial" font-size="16px">empusu</text>
   <rect width="67" height="20" x="698" y="193" style="fill:none;stroke:black;"/>
   <text width="67" height="20" x="703" y="207" style="fill:black;" font-family="Arial" font-size="16px">emausu</text>
   <rect width="67" height="20" x="698" y="213" style="fill:none;stroke:black;"/>
   <text width="67" height="20" x="703" y="227" style="fill:black;" font-family="Arial" font-size="16px">pasusu</text>
   <rect width="67" height="20" x="698" y="233" style="fill:none;stroke:black;"/>
   <text width="67" height="20" x="703" y="247" style="fill:black;" font-family="Arial" font-size="16px">nitusu</text>
   <rect width="67" height="20" x="698" y="253" style="fill:none;stroke:black;"/>
   <text width="67" height="20" x="703" y="267" style="fill:black;" font-family="Arial" font-size="16px">fotusu</text>
   <rect width="67" height="20" x="698" y="273" style="fill:none;stroke:black;"/>
   <text width="67" height="20" x="703" y="287" style="fill:black;" font-family="Arial" font-size="16px">expusu</text>
   <rect width="67" height="20" x="698" y="293" style="fill:none;stroke:black;"/>
   <text width="67" height="20" x="703" y="307" style="fill:black;" font-family="Arial" font-size="16px">hisusu</text>
   <rect width="67" height="20" x="698" y="313" style="fill:none;stroke:black;"/>
   <text width="67" height="20" x="703" y="327" style="fill:black;" font-family="Arial" font-size="16px">salusu</text>
   <rect width="67" height="20" x="698" y="333" style="fill:none;stroke:black;"/>
   <text width="67" height="20" x="703" y="347" style="fill:black;" font-family="Arial" font-size="16px">tponit</text>
   <rect width="67" height="20" x="698" y="353" style="fill:none;stroke:black;"/>
   <text width="67" height="20" x="703" y="367" style="fill:black;" font-family="Arial" font-size="16px">genusu</text>
   <rect width="67" height="20" x="698" y="373" style="fill:none;stroke:black;"/>
   <text width="67" height="20" x="703" y="387" style="fill:black;" font-family="Arial" font-size="16px">fhnusu</text>
   <rect width="67" height="20" x="698" y="393" style="fill:none;stroke:black;"/>
   <text width="67" height="20" x="703" y="407" style="fill:black;" font-family="Arial" font-size="16px">actusu</text>
   <rect width="67" height="20" x="698" y="413" style="fill:none;stroke:black;"/>
   <text width="67" height="20" x="703" y="427" style="fill:black;" font-family="Arial" font-size="16px">idubi</text>
   <rect width="61" height="20" x="513" y="310" style="fill:#007;stroke:black;"/>
   <text width="61" height="20" x="518" y="324" style="fill:#fff;" font-family="Arial" font-size="16px"> valor</text>
   <rect width="61" height="20" x="513" y="330" style="fill:#aea;stroke:black;"/>
   <text width="61" height="20" x="518" y="344" style="fill:black;" font-family="Arial" font-size="16px">idval</text>
   <rect width="61" height="20" x="513" y="350" style="fill:none;stroke:black;"/>
   <text width="61" height="20" x="518" y="364" style="fill:black;" font-family="Arial" font-size="16px">nomval</text>
   <rect width="61" height="20" x="513" y="370" style="fill:none;stroke:black;"/>
   <text width="61" height="20" x="518" y="384" style="fill:black;" font-family="Arial" font-size="16px">iddom</text>
   <rect width="61" height="20" x="513" y="390" style="fill:none;stroke:black;"/>
   <text width="61" height="20" x="518" y="404" style="fill:black;" font-family="Arial" font-size="16px">parval</text>
   <rect width="61" height="20" x="513" y="410" style="fill:none;stroke:black;"/>
   <text width="61" height="20" x="518" y="424" style="fill:black;" font-family="Arial" font-size="16px">actval</text>
</svg>
